<?xml version="1.0" encoding="utf-8"?>
<!-- Generator: Adobe Illustrator 16.2.1, SVG Export Plug-In . SVG Version: 6.00 Build 0)  -->
<!DOCTYPE svg PUBLIC "-//W3C//DTD SVG 1.1//EN" "http://www.w3.org/Graphics/SVG/1.1/DTD/svg11.dtd">
<svg version="1.1" id="Layer_1" xmlns="http://www.w3.org/2000/svg" xmlns:xlink="http://www.w3.org/1999/xlink" x="0px" y="0px"
	 width="212.02px" height="212.023px" viewBox="0 0 212.02 212.023" enable-background="new 0 0 212.02 212.023"
	 xml:space="preserve">
<g>
	<path fill="#FFFFFF" d="M106.01,212.023C47.555,212.023,0,164.466,0,106.01C0,47.556,47.555,0,106.01,0
		c58.455,0,106.01,47.556,106.01,106.01C212.02,164.466,164.465,212.023,106.01,212.023z M106.01,5.48
		C50.577,5.48,5.48,50.578,5.48,106.01c0,55.435,45.097,100.533,100.529,100.533c55.434,0,100.53-45.098,100.53-100.533
		C206.54,50.578,161.443,5.48,106.01,5.48z"/>
</g>
<g>
	<g>
		<path fill="#FFFFFF" d="M47.659,94.541c-2.055,0-3.727,1.671-3.727,3.726s1.672,3.726,3.727,3.726
			c2.053,0,3.725-1.672,3.725-3.726S49.712,94.541,47.659,94.541z"/>
	</g>
	<g>
		<path fill="#FFFFFF" d="M47.659,111.858c-2.055,0-3.727,1.673-3.727,3.727s1.672,3.727,3.727,3.727
			c2.053,0,3.725-1.673,3.725-3.727S49.712,111.858,47.659,111.858z"/>
	</g>
	<g>
		<path fill="#FFFFFF" d="M47.659,129.176c-2.055,0-3.727,1.67-3.727,3.725s1.672,3.725,3.727,3.725c2.053,0,3.725-1.67,3.725-3.725
			S49.712,129.176,47.659,129.176z"/>
	</g>
	<g>
		<rect x="35.404" y="147.202" fill="#FFFFFF" width="44.863" height="7.803"/>
	</g>
	<g>
		<path fill="#FFFFFF" d="M80.268,144.461V53.941H35.404v90.521H80.268z M47.659,139.366c-3.566,0-6.467-2.9-6.467-6.465
			s2.901-6.465,6.467-6.465c3.564,0,6.465,2.901,6.465,6.465S51.223,139.366,47.659,139.366z M47.659,122.051
			c-3.566,0-6.467-2.901-6.467-6.467s2.901-6.467,6.467-6.467c3.564,0,6.465,2.901,6.465,6.467S51.223,122.051,47.659,122.051z
			 M47.659,104.732c-3.566,0-6.467-2.9-6.467-6.466c0-3.565,2.901-6.466,6.467-6.466c3.564,0,6.465,2.901,6.465,6.466
			C54.124,101.832,51.223,104.732,47.659,104.732z M41.019,59.864h33.635v2.74H41.019V59.864z M41.019,67.565h33.635v2.74H41.019
			V67.565z M41.019,75.266h33.635v2.74H41.019V75.266z M41.019,82.967h33.635v2.74H41.019V82.967z"/>
	</g>
</g>
<g>
	<path fill="#FFFFFF" d="M185.587,142.092V67.35H85.021v74.743h34.996v7.815h-9.853v5.097h9.853h30.575h9.853v-5.097h-9.853v-7.815
		H185.587z M157.554,135.959c-1.599,0-2.892-1.295-2.892-2.89c0-1.598,1.293-2.894,2.892-2.894c1.597,0,2.892,1.295,2.892,2.894
		C160.445,134.664,159.15,135.959,157.554,135.959z M166.388,135.959c-1.598,0-2.892-1.295-2.892-2.89
		c0-1.598,1.294-2.894,2.892-2.894c1.597,0,2.893,1.295,2.893,2.894C169.28,134.664,167.984,135.959,166.388,135.959z
		 M175.221,135.959c-1.597,0-2.891-1.295-2.891-2.89c0-1.598,1.294-2.894,2.891-2.894c1.599,0,2.892,1.295,2.892,2.894
		C178.112,134.664,176.819,135.959,175.221,135.959z M92.496,125.378V73.996h85.616v51.382H92.496z"/>
</g>
</svg>
