<?xml version="1.0" encoding="utf-8"?>
<!-- Generator: Adobe Illustrator 16.2.1, SVG Export Plug-In . SVG Version: 6.00 Build 0)  -->
<!DOCTYPE svg PUBLIC "-//W3C//DTD SVG 1.1//EN" "http://www.w3.org/Graphics/SVG/1.1/DTD/svg11.dtd">
<svg version="1.1" id="Layer_1" xmlns="http://www.w3.org/2000/svg" xmlns:xlink="http://www.w3.org/1999/xlink" x="0px" y="0px"
	 width="212.02px" height="212.023px" viewBox="0 0 212.02 212.023" enable-background="new 0 0 212.02 212.023"
	 xml:space="preserve">
<g>
	<path fill="#FFFFFF" d="M105.757,211.52C47.442,211.52,0,164.075,0,105.757C0,47.442,47.442,0,105.757,0
		c58.315,0,105.757,47.442,105.757,105.757C211.515,164.075,164.073,211.52,105.757,211.52z M105.757,5.467
		c-55.301,0-100.29,44.99-100.29,100.29c0,55.303,44.989,100.295,100.29,100.295s100.291-44.993,100.291-100.295
		C206.048,50.458,161.058,5.467,105.757,5.467z"/>
</g>
<g>
	<path fill="#FFFFFF" d="M166.675,139.471l0.383-0.686l0.192-0.472h-0.126l-0.402,0.575l-0.263,0.469l-0.134,0.276l-0.208,0.304
		l-0.252,0.296l0.133-0.035l0.468-0.443L166.675,139.471z M165.636,143.4l1.171,1.026l0.359-0.992l-0.019-0.196l-0.169,0.037
		l-0.25,0.113l-0.269,0.046l-0.785-0.196L165.636,143.4z M162.999,144.036l-0.351-0.204l-0.087-0.108l-0.123-0.101l-0.31-0.188
		l-0.372,0.338l-0.091,0.431l0.105,1.23l0.333-0.21l0.249-0.659l0.21-0.138l0.153,0.122l0.128,0.268l0.188,0.271l0.324,0.132
		l-0.123-0.404l-0.078-0.417L162.999,144.036z M172.025,151.423l0.762-0.867l0.1-0.162l-0.121,0.04l-0.061,0.043l-1.048,1.19
		l0.18-0.087L172.025,151.423z M149.812,158.881l-0.349,0.408l-0.63,0.227l-0.571,0.303l-0.164,0.641h0.174l0.338-0.377l0.869-0.451
		l0.518-0.354l-0.189-0.196l0.189-0.197L149.812,158.881L149.812,158.881z M150.701,158.389l-0.155,0.103l-0.126,0.217l0.24,0.017
		l0.377-0.242l0.031-0.154l-0.242,0.031L150.701,158.389z M165.763,136.364l0.508-0.097l0.027-0.066l0.096-0.132l0.143-0.137
		l0.172-0.06l0.085,0.034l0.071,0.081l0.115,0.078l0.188,0.025l0.019-0.066l0.078-0.143l0.137-0.143l0.175-0.061l0.181,0.072
		l0.106,0.188l0.075,0.196l0.078,0.137l0.354,0.473l0.174,0.068l0.162-0.323l0.366,0.095l0.238-0.216l0.109-0.413l-0.025-0.481
		h-0.155l-0.078,0.192l-0.114,0.157l-0.149,0.138l-0.194,0.131l-0.023-0.137l-0.132-0.277l0.083-0.407l-0.444-0.194l-0.347-0.248
		l0.358-0.547l0.719-0.747l0.324-0.257l0.344-0.187v-0.194l-0.397,0.1l-0.342,0.301l-0.486,0.595l-0.64,0.472l-0.354,0.188
		l-0.39,0.132l0.186,0.51l-0.208,0.161h-0.322l-0.173,0.026l-0.112,0.202l-0.283,0.151l-0.334,0.094l-0.305,0.049l0.153,0.385
		L165.763,136.364z M173.896,161.046l-0.258-0.395l-0.306-0.205l-0.363-0.054l-0.45,0.067l0.095,0.296l0.077,0.112l-0.34-0.018
		l-0.398-0.121l-0.336-0.223l-0.135-0.335l-1.05-0.303v-0.183l0.281-0.077l0.246-0.115l0.199-0.162l0.15-0.25l-0.263-0.109
		l-0.096-0.247l-0.089-0.319l-0.24-0.31l-0.09,0.074l-0.249,0.143l-0.075-0.35l-0.143-0.208l-0.167-0.182l-0.139-0.262l-0.096,0.074
		l-0.262,0.12l0.027-0.331l-0.009-0.296l-0.05-0.166l-0.123,0.005l-0.026-0.094l-0.005-0.079l-0.036-0.043l-0.119,0.02l-0.237,0.512
		l-0.402,0.375l-0.436,0.183l-0.326-0.084l-0.096-0.216l-0.076-0.546l-0.155-0.222l-0.283-0.132l-0.217,0.014l-0.208,0.076
		l-0.526,0.082l-0.383,0.125l-0.205,0.029l-0.282-0.06l-0.365-0.269l-0.215-0.068l-0.114-0.088l0.023-0.204l0.164-0.203l0.271-0.087
		h0.276l0.207-0.03l0.162-0.114l0.005-0.155c-0.205-0.037-0.414-0.075-0.623-0.106l-0.264,0.046l-0.201,0.143h-0.156l-0.162-0.123
		l-0.208-0.018l-0.243,0.046l-0.08-0.088l-0.518-0.275h-0.555l-1.513,0.317l-0.336-0.025l-0.269-0.125l-0.121-0.306l0.126-0.049
		l0.269-0.047l0.25-0.191l0.062-0.48l-0.404,0.204l-0.128-0.209l0.094-0.408l0.258-0.39v-0.197l-0.456-0.035l-0.696-0.403
		l-0.418-0.157l0.059-0.095l0.021-0.029l0.114-0.086l-0.365-0.15l-0.636,0.065l-0.585-0.384l-0.698-0.233l-0.239-0.173l-0.149-0.297
		l-0.142-0.638l-0.134-0.346l-0.721-0.855l-0.143-0.341l0.08-0.016l0.251,0.016l-0.174-0.282l-0.253-0.144l-0.612-0.168l0.875-0.168
		l2.105,0.569l0.486-0.202l-0.646-0.662l-0.041-0.132l0.012-0.059l-0.012-0.137l-0.518-0.217l0.242-0.138l0.108-0.042l-0.344-0.287
		l-0.667-0.396l-0.215-0.324l0.751,0.247l1.229,0.781l0.705,0.163l0.704,0.046l0.779,0.168l0.288,0.203l0.303,0.301l0.354,0.247
		l0.436,0.042v-0.199l-0.843-0.759l-0.379-0.23h0.121l0.108-0.028l0.12-0.005l0.172,0.033l-0.292-0.353l-0.518-0.024l-0.585,0.064
		l-0.507-0.084l-0.287-0.303l-0.173-0.493l0.059-0.531l0.4-0.464l0.234-0.055l0.559,0.079l0.248-0.024l0.306-0.149l0.131-0.138
		l0.269-0.523l0.361-0.377l0.383-0.324l0.228-0.372l-0.116-0.509l0.344,0.013l0.311,0.105l0.264,0.176l0.202,0.208l0.278,0.518
		l0.185,0.175l0.319,0.014l-0.061,0.192l-0.048,0.409l-0.046,0.194l0.233-0.205l0.248-0.563l0.208-0.204h0.187l0.588,0.163
		l0.257,0.018l-0.331-0.209l-0.192-0.313l-0.16-0.369l-0.194-0.329l0.137-0.193l0.182-0.198l0.246-0.149l0.311-0.037l-0.08-0.125
		l-0.046-0.095l-0.064-0.083l-0.153-0.088l0.171-0.075l0.52-0.301l-0.712-0.303l-0.164-0.113l-0.16,0.194l-0.149,0.108l-0.383,0.114
		v-0.217l0.498-0.344l0.193-0.256l-0.074-0.312l-0.221-0.053l-0.306,0.12l-0.289,0.209l-0.14,0.222h-0.166l0.005-0.132l-0.042-0.029
		l0.037-0.018l-0.174-0.128l-0.359-0.486v-0.183l0.688-0.397l0.167,0.479l0.478-0.101l0.297-0.438l-0.409-0.56l-0.366-0.087
		l-0.712,0.126l-0.318-0.037l-0.332-0.186l0.075-0.095l0.241-0.096l0.192-0.196l-0.005-0.25l-0.098-0.227l-0.05-0.236l0.152-0.301
		l0.324-0.197l0.713,0.062l0.342-0.078l0.3-0.258l0.055-0.227l-0.164-0.184l-0.349-0.108l-0.185,0.062l-0.541,0.371l-0.155,0.162
		h-0.157l-0.052-0.112l-0.011-0.017l-0.032-0.005l-0.087-0.062v-0.215h0.188v-0.183l-0.188-0.114l-0.571-0.247l-0.276-0.05
		l-0.137-0.162l-0.137-0.047l-0.184,0.108l-0.078,0.167l0.025,0.375l-0.039,0.154l-0.139,0.241l-0.088,0.204l-0.102,0.185
		l-0.188,0.181l-0.269,0.15l-0.521,0.133l-0.246,0.095l-0.359,0.306l-0.139,0.357l-0.005,1.052l-0.108,0.619l-0.281,0.634
		l-0.395,0.533l-0.44,0.318l-0.55,0.137l-0.582-0.013l-0.552-0.204l-0.481-0.443l-0.593-0.702l0.089-0.331l0.365-0.478l0.061-0.181
		l-0.203-0.127l-0.875,0.396l-0.392,0.126l-0.698-0.019l-0.419-0.119l-0.274-0.295l-0.251-0.563l-0.174-0.541l-0.042-0.467
		l0.132-0.434l0.336-0.444l0.544-0.275l0.68,0.021l0.652,0.274l0.471,0.481l0.278-0.251l-0.013-0.262l-0.091-0.276l0.08-0.303
		l0.213-0.15l0.741-0.257l0.108-0.721l0.262-0.366l0.344-0.288l0.343-0.492l-0.265-0.175l-0.443-0.509l-0.349-0.135l-0.689,0.198
		l-0.091,0.197l0.146,0.139l0.194,0.066h0.095l0.021-0.151l0.126-0.072l0.137,0.033l0.059,0.189l-0.052,0.227l-0.128,0.137
		l-0.349,0.247l-0.137,0.042l-0.384-0.06l-0.157,0.018l-0.017,0.096l-0.34,0.692l-0.082-0.166l-0.102-0.103l-0.095-0.072
		l-0.075-0.072l0.169-0.276l0.283-0.754l0.256-0.359l-0.188-0.397h-0.173l-0.096,0.389l-0.148,0.373l-0.221,0.366l-0.553,0.726
		l-0.075,0.246l-0.061,0.127l-0.226-0.027l-0.358-0.119l-0.402-0.204l-0.331-0.269l-0.138-0.302l-0.08-0.432l-0.197-0.168
		l-0.582-0.108l-0.486,0.935l-0.7,0.795l-1.746,1.25l-0.505,0.231l-0.521,0.119l-1.71,0.154l-1.025,0.325l-0.585-0.02l-1.586-0.443
		l-0.886-0.589l-1.844-0.172l-1.038-0.419l-0.853-0.762l-0.481-1.067l0.113-1.326l0.594-0.911l1.865-1.625l0.648-0.86l0.94-1.368
		l0.577-0.618l0.585-0.403l0.829-0.094l1.166,0.168l1.198,0.329l0.949,0.396l1.157,0.995l0.223,0.104l0.108,0.28l0.532,1.093
		l0.24,0.309l1.129,0.198l0.277-0.03l0.471-0.131l0.282-0.037l0.548,0.198l0.904,0.768l0.546,0.05l0.871-0.283l0.475,0.065
		l0.208,0.503l-0.041,0.277l-0.068,0.197l-0.019,0.192l0.128,0.241l0.178,0.114l0.523,0.163l0.174,0.12l0.415-0.177l0.404,0.021
		l0.833,0.157l0.438-0.115l0.41-0.186l0.348-0.037l0.26,0.337l-0.281,0.143l-0.16,0.046l-0.248,0.005l0.431,0.366l0.769-0.217
		l0.741-0.49l0.261-0.365l-0.174-0.205l-0.31-0.094l-0.3,0.106l-0.205,0.306l-0.582-0.671l-0.739-1.784l-0.484-0.846l0.041-1.199
		l-0.119-0.491l-0.726-1.128l-0.169-0.464l-0.018-0.251l0.034-0.517l-0.021-0.249l-0.071-0.208l-0.418-0.773l-0.712-0.499
		l-0.338-0.907l-0.415-0.289l-0.801-0.318l-0.395-0.401l-0.659-1.409l0.317-0.608l-0.2-0.5l-0.382-0.452l-0.252-0.438l0.037-0.521
		l0.185-0.635l0.486-1.057l-0.162-0.551l0.223-0.504l0.628-0.744l0.398-1.704l0.585-1.078l0.326-1.049l0.174-1.019l-0.08-0.437
		c-16.195,0.002-32.389,0-48.583-0.009l1.979-1.636l-0.158-0.755l-0.772-0.936l-0.293-0.828l0.028-0.283l0.265-0.51l0.066-0.317
		l0.065-0.115l0.107-0.317l0.042-0.329l-0.126-0.151l-0.354-0.215l-0.39-0.511l-0.263-0.592l0.041-0.475l0.377-0.196l0.594-0.049
		l1.194,0.049l0.534-0.126l0.311-0.323l0.162-0.458l0.35-1.901l0.231-0.27l0.061-0.258l0.036-0.581l-0.041-0.174l-0.326-0.618
		l-0.258-0.341l-0.109-0.216l-0.114-1.284l0.587-0.869l1.769-1.271l0.03-0.204l0.126-0.318l0.018-0.708l0.481-2.556l0.041-0.582
		l0.103-0.515l0.773-1.409l0.325-1.104l0.241-0.515l0.382-0.517l0.44-0.274l1.061-0.242l0.486-0.179l0.49-0.379l1.158-1.349
		l0.163-0.25l0.25-0.613l0.197-0.257l0.248-0.163l0.785-0.246l0.91-0.673l0.562-1.008l0.006-1.085l-0.767-0.883l-0.014-0.197
		l0.02-0.293l0.089-0.305l0.235-0.234l1.361,0.047l0.869-1.5l0.792-1.895l1.151-1.141v-0.204l0.197-0.095l0.083-0.426l-0.169-0.463
		l-0.569-0.212l-0.881-0.138l-0.42-0.163l-0.174-0.216l-0.221-1.188l-0.578-0.552l-0.772-0.33l-0.848-0.503l-0.304-0.426
		l-0.088-0.485l0.053-1.224l0.054-0.282l0.113-0.334l0.073-0.359l-0.051-0.348l-0.188-0.234l-0.607-0.39l-0.256-0.21l-0.294-0.419
		l-0.216-0.492l-0.138-0.57l-0.042-0.652l0.277-0.419l0.63-0.132l0.688-0.024l0.474-0.126l0.402-0.635l-0.112-0.522l-0.457-0.361
		L120,56.84l-0.312-0.253l-0.066-0.442l0.187-1.188l0.415-1.439l0.247-0.301l0.318-0.168l0.383-0.415l0.361-0.533l0.246-0.522
		l-0.486-0.611l-0.314-0.3l-0.326-0.125l-0.396-0.056l-0.427-0.137l-0.344-0.228l-0.137-0.288l0.041-0.984l-0.355,0.018
		c-24.101,0.025-48.206,0.047-72.309,0.082c-0.016,10.069-0.032,20.138-0.05,30.206l0.018,0.06l0.055,0.114l0.137,0.149l0.349,0.257
		l0.155,0.091l0.317,0.245l0.115,0.138l0.515,0.967l0.088,0.101l0.109,0.09l0.114,0.08l0.827,0.419l0.223,0.185l0.493,0.511
		l0.347,0.454l0.215,0.391l0.126,0.275l0.102,0.288l0.179,0.384l0.648,0.96l0.073,0.265l0.167,1.138l0.096,0.348l0.085,0.227
		l0.089,0.097l0.08,0.097l0.065,0.113l0.018,0.143l-0.005,0.168l-0.126,0.474l-0.037,0.269l-0.042,0.828l-0.038,0.247l-0.041,0.163
		l-0.101,0.216l-0.104,0.304l-0.012,0.205l0.012,0.221l0.085,0.284l0.066,0.18l0.162,0.27l0.244,0.335l0.681,0.755l0.221,0.18
		l0.119,0.085l0.144,0.064l0.618,0.194l0.144,0.061l0.122,0.082l0.083,0.121l0.013,0.156l-0.081,0.156l-0.059,0.084l-0.032,0.029
		l-0.011,0.013l-0.263,0.173l-0.08,0.114l-0.018,0.144l0.057,0.233l0.051,0.138l0.081,0.126l0.096,0.083l0.112,0.061l0.306,0.083
		l0.138,0.06l0.108,0.09l0.078,0.174l0.066,0.247l0.073,0.474l0.072,0.25l0.083,0.197l0.248,0.344l0.395,0.418l0.349,0.241
		l0.041,0.077l-0.012,0.102l-0.317,0.41l-0.077,0.113l-0.108,0.264l-0.05,0.169l-0.024,0.208l0.049,0.312l0.084,0.173l0.108,0.137
		l0.648,0.552l0.276,0.295l0.083,0.118l0.065,0.144l0.056,0.161l0.054,0.243l0.06,0.203l0.078,0.151l0.134,0.221l0.039,0.149
		l0.101,0.786l0.048,0.15l0.073,0.108l0.078,0.079l0.073,0.053l0.046,0.03c0.057,0.003,0.112,0.008,0.169,0.013l0.491-0.134
		l0.458,0.121l0.137,0.479l-0.071,1.307l-0.057,0.292l-0.238,0.402l-0.057,0.324l0.678,1.09l0.356,0.318l0.102,0.208l-0.097,0.295
		l-0.205,0.14l-0.685,0.209l-0.231,0.036l-0.373,0.304l0.218,0.665l0.4,0.636l0.188,0.215l0.189,0.381l-0.035,0.134l-0.156,0.306
		l-0.383,0.341l-0.223,0.246l-0.102,0.306l0.029,0.323l0.126,0.558l0.028,0.326l-0.005,0.355l-0.033,0.255l-0.145,0.493
		l-0.913,1.688l-0.21,1.398l-0.247,0.414l-0.855,0.69l-0.216,0.458l-0.364,1.451l-0.048,0.305l-0.499,0.144l-0.383,0.364
		l-0.223,0.509l-0.012,0.579l0.071,0.149l0.211,0.132l0.066,0.137l0.018,0.566l-0.018,0.034l0.306,0.869l0.036,0.234l-0.071,0.54
		l-0.188,0.396l-0.617,0.768l-0.361,0.647l-0.082,0.564l0.096,1.284l0.18,0.444l0.384,0.36l0.365,0.42l0.125,0.65l-0.075,0.297
		l-0.242,0.572l-0.048,0.328l0.064,0.296l0.242,0.424l0.059,0.194l0.056,0.54l0.087,0.414l0.018,0.468l-0.162,0.664l-0.33,0.573
		l-0.041,0.269l0.197,0.349l-1.488,1.685l-0.516,0.911v0.006l0.205,0.026l0.414,0.169l0.123,0.422l-0.123,1.865l-1.039,2.071
		l-0.402,0.1l-1.595,0.116l-0.235,0.293l0.064,0.673l0.254,1.211l0.63,0.875l0.492,0.366l0.521-0.143l0.402-0.324l0.794-0.384
		l0.354-0.294l0.833-0.474l1.169-0.196l2.136-0.021l2.563,0.059l0.651-0.276l0.45,0.118l1.128-0.123l0.522,0.223l0.535-0.282
		l1.458-0.255l1.312-0.062l1.385,0.235l2.762,0.695l1.691,0.781l3.072,1.019l1.295,1.052l0.928,0.523l2.638,1.132l4.216,0.943
		l0.877-0.23l0.264,0.155l0.258-0.155l0.582,0.323l3.832,0.687l0.754-0.03l0.726-0.188l1.853-0.989l0.739-0.172l1.561,0.149
		l0.694-0.021l0.331-0.352l-0.516-0.177l0.149-0.29l0.304-0.156l0.769-0.169l-0.306-0.281h-0.589l-0.61,0.192l-0.397,0.291h-0.186
		l-0.156-0.499l-0.707-1.481l0.309-0.114l0.739-0.498l-0.221-0.135l-0.209,0.021l-0.235,0.072l-0.6,0.107l-0.363,0.288l-0.192,0.062
		l-0.235-0.241l-0.24-0.578l-0.198-0.666l-0.089-0.51l0.539,0.361l0.132,0.036l0.137-0.118l0.212-0.396l0.089-0.083l0.425,0.127
		l0.194,0.294l-0.062,0.329l-0.316,0.258l0.361,0.005l0.305-0.22l0.571-0.595l0.34-0.204l2.176-0.797l0.248-0.187l0.155-0.391
		l-0.047-0.25l0.047-0.126l0.444-0.042l0.287,0.119l0.265,0.209l0.294,0.073l0.677-0.51l0.319-0.018l1.174,0.186l0.299,0.174
		l0.181,0.289l0.061,0.395l-0.084,0.498l-0.192-0.094l-0.226-0.323l-0.187-0.189l-0.281,0.249l-0.247,0.54l-0.089,0.551l0.184,0.249
		l0.08,0.203l0.018,0.415l0.211,0.301l0.643-0.126l0.947-0.552l0.433-0.172l2.374-0.135l0.575,0.067l0.607,0.249l0.185,0.386
		l-0.083,1.259l-0.114,0.665l-0.149,0.492l0.114,0.282l0.664,0.041l0.293-0.072l0.559-0.251l0.269-0.052l0.203,0.138l0.05,0.311
		l0.005,0.358l0.077,0.269l0.265,0.524l0.102,0.659l-0.108,0.582l-0.349,0.301l0.632,0.132l1.037-0.168l1.031-0.343l0.594-0.413
		l0.349,0.261l-0.037,0.26l-0.2,0.277l-0.114,0.3l0.126,0.194l0.308,0.066l0.616,0.026l0.605,0.174l1.075,0.45l0.564,0.366
		l0.108-0.306l0.303-0.559l0.108-0.3l-0.06-0.084l-0.102-0.25l-0.041-0.304l0.108-0.269l0.726-0.6l0.132-0.413l-0.245-0.664
		l0.414,0.018l0.326,0.143l0.208,0.262l0.083,0.376l-0.082,0.473l-0.227,0.276l-0.292,0.192l-0.256,0.246l-0.317,0.649l-0.108,0.761
		l0.129,0.774l0.385,0.68l0.16,0.113l0.331,0.096l0.126,0.101l0.046,0.186l-0.028,0.486l0.059,0.204l0.29,0.251l0.79,0.472
		l1.41,1.186l0.296,0.626l-0.445,0.744v0.18l0.121,0.072l0.121,0.181l0.112,0.14l-0.228,0.228l-0.257,0.167l-0.545,0.196
		l0.005-0.321l-0.101-0.234l-0.192-0.15l-0.261-0.081l0.24-0.381l0.104-0.426l0.017-0.967l-0.756,0.223l-0.593-0.341l-0.304-0.577
		l0.096-0.485l-0.594,0.059l-0.304,0.318l-0.205,0.468l-0.291,0.516l-0.38,0.282l-0.48,0.109l-0.437-0.127l-0.251-0.444l0.289,1.279
		l1.084,0.983l1.434,0.641l2.638,0.444l0.302,0.12l0.581,0.528l0.242,0.138l0.413,0.031l0.336-0.062l0.221-0.223l0.083-0.436
		l0.173-0.134l0.393,0.025l0.414,0.155l0.228,0.266l-0.269,0.065l-0.176,0.147l-0.087,0.237l0.018,0.323l0.714-0.269l0.689,0.168
		l0.633,0.413l1.159,1.08l0.263-0.042l0.078-0.114l0.018-0.131l0.083-0.103l0.565-0.287l0.108-0.258l-0.157-0.457l0.444,0.168
		l0.421,0.289l0.418,0.16l0.456-0.208l0.192,0.538l-0.276,0.187l-0.408,0.114l-0.209,0.342l0.306,0.024l0.888,0.297l0.185-0.013
		l0.188-0.42l0.41,0.014l0.39,0.192l0.143,0.126l0.203-0.066l0.109-0.144l0.083-0.137l0.357-0.168l0.02-0.24l-0.037-0.264
		l0.054-0.181l0.282-0.103l0.282,0.068l0.139,0.252l0.16,0.368l-0.003-0.477l0.178-1.112l-0.061-0.053l-0.114-0.128l0.21-0.665
		l0.133-0.305l0.172-0.209l0.243,0.295l0.194,0.304l0.195,0.108l0.247-0.31l-0.316-0.433l0.149-0.302l0.276-0.328l0.054-0.529
		l-0.586-0.097l-0.123-0.083l-0.005-0.324l0.121-0.163l0.194-0.019l0.24,0.089l0.046-0.269l0.144-0.144l0.217-0.038l0.281,0.054
		v0.214l-0.349,0.182l0.253,0.127l0.871,0.287l0.299-0.147l0.235-0.248l0.25-0.049l0.336,0.444l0.588-0.671l0.196-0.377l0.081-0.444
		l0.119-0.439l0.25,0.015l0.213,0.197l0.027,0.123l0.139,0.163l0.503,0.836l0.148,0.381v1.591l0.599-0.798l0.089-0.303l0.041-0.382
		l0.12-0.257l0.217-0.142l0.31-0.084v0.181l0.038,0.33l0.936,1.038l0.233,0.51l0.102,0.139l0.203-0.348l0.181-0.467l0.036-0.215
		l0.25,0.042l0.162,0.276l0.083,0.364l0.02,0.301l-0.035,0.349l-0.114,0.405l-0.026,0.341l-0.082,0.312l-0.167,0.304l-0.103,0.293
		l0.096,0.271l0.539,0.503l0.161,0.249l0.075,0.36l0.02,0.364l-0.041,0.289l-0.163,0.149l0.377,0.138l0.774-0.33l1.293-0.827
		l0.418-0.145l0.427-0.354l0.349-0.396l0.358-0.289l0.142-0.193l0.579-1.117l0.16-0.461l-0.833,0.114l-0.402-0.815l0.119-0.869
		l0.769-0.02l-0.283-0.485l0.215-0.252l0.415,0.074l0.345,0.484l0.503-0.216v-0.196l-0.419-0.215l-0.342-0.359l-0.223-0.459
		l-0.053-0.54l0.208,0.064l0.142,0.133l0.102,0.174l0.082,0.223l0.027-0.769l-0.027-0.235l-0.082-0.186l-0.12-0.149l-0.144-0.149
		l0.014-0.481l0.078-0.268l0.208-0.174l0.392-0.17l-0.582-0.539l-0.583-0.364l-0.633-0.208l-0.726-0.066l-0.253-0.061l-0.247-0.149
		l-1.075-1.014l-0.247-0.181l-0.15,0.162l-0.108,0.028l-0.106-0.108l-0.139-0.259h0.248l0.205-0.046l0.4-0.168v-0.202l-0.174,0.016
		l-0.516-0.016l0.16-0.402l0.379-0.486l0.149-0.302l0.383,0.343l0.589,0.876l0.407,0.382l0.187-0.214l-0.334-0.217l0.087-0.16
		l0.344-0.067l0.425,0.067l0.479,0.215l2.76,1.841l0.748,0.265l0.858-0.366l0.778,0.809l0.415,0.149l0.188-0.647l0.038-0.401
		l0.105-0.067l0.192,0.089l0.595,0.142l0.061,0.173l-0.114,0.361l-0.05-0.018l-0.114,0.106l-0.119,0.155l-0.062,0.146v0.185
		l0.054,0.104l0.064,0.054l0.041,0.051l0.05,0.135l0.1,0.203l0.132,0.174l0.155,0.078l0.545-0.3l0.29-0.06l0.126,0.264l-0.074,0.196
		l-0.137,0.168l-0.08,0.208l0.115,0.331l0.071-0.139l0.075-0.061l0.082-0.06l0.135-0.137l0.146,0.404l0.083,0.336l-0.033,0.319
		l-0.196,0.321l-0.292,0.242l-0.416,0.227l-0.876,0.319l3.515,0.318l0.301-0.104l0.689-0.628l0.358-0.178l0.277,0.258l-0.014,0.262
		l-0.418,0.661l0.424,0.378l0.144,0.458l0.223,0.383l0.666,0.16l0.676,0.062l1.488,0.544l-0.25-0.599l0.274-0.271l0.523,0.012
		l0.491,0.251l-0.473,0.204l-0.223,0.005l1.401,2.544l0.532,0.197l0.196,0.175l-0.14,0.331l-0.023,0.222l0.275,0.775l0.256,0.236
		l0.575-0.117l0.594-0.342l0.317-0.455l0.014-0.349l-0.144-0.612l-0.043-0.338l0.08-0.317l0.174-0.184l0.175,0.018l0.078,0.287
		l-0.028,0.708l0.048,0.367l0.169,0.2l0.217-0.084l0.071-0.322l0.013-0.372l0.047-0.202l0.363,0.028l-0.046,0.563l-0.235,0.66
		l-0.182,0.319l-0.438,0.98l-0.232,0.109l-0.566,0.12l-0.221,0.181l-0.005,0.173l0.041,0.29v0.323l-0.128,0.297l-0.544,0.661
		l-0.169,0.287l-0.451,0.362l-0.142,0.163l-0.073,0.267l-0.084,0.91l0.552-0.161l0.45-0.385l1.188-1.757l0.149-0.378l0.061-0.363
		l0.229-0.457l0.527-0.181l0.587-0.083l0.396-0.155l0.133-0.228l-0.02-0.19l-0.073-0.2l-0.041-0.276l0.053-0.29l0.128-0.005
		l0.264,0.188l0.19,0.235l0.63,1.104l0.135,0.341l0.162,0.312l0.769,0.949l0.262,0.203l0.349-0.167l-0.504-0.972l0.079-0.521
		l0.678-0.689l0.319-0.403l0.131-0.39l0.116,0.221l0.126,0.143l0.292,0.24l0.009-0.333l-0.079-0.311l-0.134-0.283l-0.155-0.249
		l0.413,0.013l0.276,0.188l0.15,0.331l0.023,0.43l0.331-0.326l0.721-1.439l-1.668-0.035l-0.248,0.035l0.048-0.355l0.354-0.401
		l0.452-0.325l0.354-0.101l-0.027,0.167l0.03,0.223l-0.007,0.198h0.194l0.119-0.29l0.175-0.061l0.551,0.149l-0.186-0.281
		l-0.102-0.066l-0.233-0.042v-0.215H173.896z M168.547,153.153l0.47,0.012l0.52-0.114l0.414-0.27l0.149-0.438l-0.025-0.09
		l-0.007-0.07l-0.039-0.039l-0.114,0.022l-0.136,0.417l-0.372,0.258L168.547,153.153z M168.227,139.291l-0.68,0.144l-0.451,0.181
		l-0.416,0.365l0.041,0.134l0.228-0.104l0.271-0.077l0.473-0.09h0.369l0.133-0.066l-0.083-0.137v-0.144L168.227,139.291z
		 M163.413,133.647l-0.042-0.169l-0.163,0.08l-0.163,0.269l0.204,0.09L163.413,133.647z M174.665,148.433l0.032,0.036l0.242-0.199
		l0.108-0.126l-0.139,0.089L174.665,148.433z M105.051,149.812l-0.625-0.046l-0.761-0.163l-0.029-0.068l-0.761-0.327l-0.65-0.644
		l-0.395-0.258l-1.408-0.318l-0.308,0.03l-0.1,0.096l-0.259,0.354l-0.145,0.125l-0.618,0.199l-0.495,0.041l-0.481,0.148
		l-0.589,0.512l-0.023,0.401l0.402,0.391l2.579,1.122l0.264,0.257l0.256,0.115l1.454,0.958l0.97-0.18l0.36-0.011l0.173-0.083
		l0.062-0.206v-0.4l0.137-0.479l0.343-0.293l0.917-0.519l0.235-0.424l-0.157-0.235L105.051,149.812z M125.024,164.931l0.724,0.276
		h0.896l-0.595-0.167L125.024,164.931z M178.761,138.267l-0.367-0.528l-0.195-0.689l-0.263-0.619l-0.55-0.343l0.368,0.307
		l0.242,0.432l0.245,1.044l0.176,0.214l-0.121,0.33l0.1,0.468l0.368,0.793l-0.156,0.18l0.014,0.462l-0.014,1.517l-0.157,0.498
		l-0.739,1.5l0.097,0.168l0.046,0.163l0.006,0.168l-0.029,0.153l0.63-1.191l0.217-0.647l0.256-2.393L178.761,138.267z
		 M176.039,146.98l0.907-1.224l0.39-0.64l-1.638,2.147L176.039,146.98z M138.323,165.089l-0.283-0.164l-0.599-0.241l-1.481-0.309
		l-0.038,0.16l1.212,0.485l1.125,0.264h0.167l-0.015-0.107L138.323,165.089z M141.23,164.243l-0.21,0.074l-0.197,0.105l-0.703,0.589
		l1.585-0.589v-0.214h-0.247L141.23,164.243z M124.97,164.925l0.055,0.006l-0.313-0.114L124.97,164.925z M147.307,153.056
		l0.108,0.194l0.101,0.078l0.095,0.067l0.137-0.007l0.134-0.083l0.198,0.036l0.162,0.182l0.093,0.247l0.139,0.132l0.372-0.052
		l0.134,0.023l0.1-0.106l0.008-0.203l-0.041-0.083l-0.043,0.056v-0.085l-0.024-0.149l-0.036-0.028l-0.029,0.128l-0.091,0.047
		l-0.178,0.059l-0.229-0.106l-0.251-0.305l-0.005-0.104l0.256,0.03l0.089-0.119l-0.149-0.236l-0.241-0.126l-0.281-0.074
		l-0.199-0.087l-0.113-0.116l-0.191-0.112l-0.525-0.198l-0.354,0.036l-0.226-0.036l-0.223,0.018l-0.164,0.147l0.029,0.271
		l0.43,0.518l0.249,0.137l0.337-0.089l0.366-0.062l0.137,0.021l-0.064,0.025L147.307,153.056z M132.389,164.752l-0.125,0.014
		l-0.417-0.034l-0.077,0.083l-0.187,0.122l-0.322,0.046l-0.215-0.072l-0.075-0.108l-0.149,0.007l-0.527,0.222l-0.126,0.139
		l-0.685,0.162l0.05,0.179h0.395l1.938-0.468l0.42-0.176l0.31-0.207l0.042-0.075l-0.169,0.109L132.389,164.752z M137.584,159.714
		l0.162-0.155l0.16-0.215l-0.02-0.271l-0.294,0.121l-0.188,0.641l0.026,0.403l0.066-0.315L137.584,159.714z"/>
</g>
</svg>
