<?xml version="1.0" encoding="utf-8"?>
<!-- Generator: Adobe Illustrator 16.2.1, SVG Export Plug-In . SVG Version: 6.00 Build 0)  -->
<!DOCTYPE svg PUBLIC "-//W3C//DTD SVG 1.1//EN" "http://www.w3.org/Graphics/SVG/1.1/DTD/svg11.dtd">
<svg version="1.1" id="Layer_1" xmlns="http://www.w3.org/2000/svg" xmlns:xlink="http://www.w3.org/1999/xlink" x="0px" y="0px"
	 width="142.96px" height="343.641px" viewBox="0 0 142.96 343.641" enable-background="new 0 0 142.96 343.641"
	 xml:space="preserve">
<g>
	<path fill="#FFFFFF" d="M72.884,141.433c-38.641,0-70.077-31.438-70.077-70.079c0-38.64,31.436-70.077,70.077-70.077
		s70.077,31.437,70.077,70.077C142.96,109.996,111.525,141.433,72.884,141.433z M72.884,4.9C36.24,4.9,6.43,34.711,6.43,71.354
		c0,36.644,29.811,66.457,66.454,66.457c36.643,0,66.454-29.812,66.454-66.457C139.337,34.711,109.527,4.9,72.884,4.9z"/>
</g>
<g>
	<path fill="#FFFFFF" d="M72.881,118.005L61.611,98.481H33.975c-3.506,0-6.359-2.853-6.359-6.359V47.367
		c0-3.506,2.853-6.359,6.359-6.359h77.817c3.506,0,6.358,2.853,6.358,6.359v44.755c0,3.506-2.853,6.359-6.358,6.359H84.154
		L72.881,118.005z M33.975,44.631c-1.508,0-2.736,1.227-2.736,2.736v44.755c0,1.509,1.228,2.736,2.736,2.736h29.728l9.178,15.901
		l9.181-15.901h29.73c1.508,0,2.735-1.227,2.735-2.736V47.367c0-1.509-1.228-2.736-2.735-2.736H33.975z"/>
</g>
<g>
	<polygon fill="#FFFFFF" points="94.923,155.209 72.882,193.384 50.844,155.209 	"/>
</g>
<g>
	<path fill="#FFFFFF" d="M72.884,343.641c-38.641,0-70.077-31.438-70.077-70.078s31.436-70.078,70.077-70.078
		s70.077,31.438,70.077,70.078S111.525,343.641,72.884,343.641z M72.884,207.107c-36.644,0-66.454,29.811-66.454,66.455
		c0,36.643,29.811,66.455,66.454,66.455c36.643,0,66.454-29.812,66.454-66.455C139.337,236.918,109.527,207.107,72.884,207.107z"/>
</g>
<g>
	<g>
		<polygon fill="#FFFFFF" points="78.798,52.624 94.929,61.937 78.798,71.249 		"/>
	</g>
	<g>
		<rect x="50.838" y="60.125" fill="#FFFFFF" width="36.455" height="3.623"/>
	</g>
	<g>
		<polygon fill="#FFFFFF" points="66.97,88.773 50.838,79.46 66.97,70.148 		"/>
	</g>
	<g>
		<rect x="58.474" y="77.649" fill="#FFFFFF" width="36.455" height="3.623"/>
	</g>
</g>
<g>
	<path fill="#FFFFFF" d="M97.091,319.461H48.678v-8.162h8.776v-3.338H26.279v-70.205h93.21v70.205H88.316v3.338h8.775V319.461z
		 M52.301,315.838h41.168v-0.916h-8.776v-10.584h31.173v-62.959H29.902v62.959h31.175v10.584h-8.776V315.838z M108.441,302.496
		c-1.723,0-3.217-0.998-3.934-2.447c-0.718,1.449-2.212,2.447-3.935,2.447s-3.217-0.998-3.934-2.447
		c-0.718,1.449-2.212,2.447-3.935,2.447c-2.42,0-4.389-1.969-4.389-4.387c0-2.42,1.969-4.389,4.389-4.389
		c1.723,0,3.217,0.998,3.935,2.447c0.717-1.449,2.211-2.447,3.934-2.447s3.217,0.998,3.935,2.447
		c0.717-1.449,2.211-2.447,3.934-2.447c2.419,0,4.387,1.969,4.387,4.389C112.828,300.527,110.86,302.496,108.441,302.496z
		 M108.441,297.344c-0.421,0-0.764,0.344-0.764,0.766s0.343,0.764,0.764,0.764s0.764-0.342,0.764-0.764
		S108.862,297.344,108.441,297.344z M100.573,297.344c-0.421,0-0.764,0.344-0.764,0.766s0.343,0.764,0.764,0.764
		s0.765-0.342,0.765-0.764S100.994,297.344,100.573,297.344z M92.705,297.344c-0.422,0-0.767,0.344-0.767,0.766
		s0.345,0.764,0.767,0.764c0.421,0,0.765-0.342,0.765-0.764S93.125,297.344,92.705,297.344z M112.828,293.07H32.937v-49.395h79.891
		V293.07z M36.56,289.447h72.645v-42.148H36.56V289.447z"/>
</g>
</svg>
