<?xml version="1.0" encoding="utf-8"?>
<!-- Generator: Adobe Illustrator 16.2.1, SVG Export Plug-In . SVG Version: 6.00 Build 0)  -->
<!DOCTYPE svg PUBLIC "-//W3C//DTD SVG 1.1//EN" "http://www.w3.org/Graphics/SVG/1.1/DTD/svg11.dtd">
<svg version="1.1" id="Layer_1" xmlns="http://www.w3.org/2000/svg" xmlns:xlink="http://www.w3.org/1999/xlink" x="0px" y="0px"
	 width="212.02px" height="212.023px" viewBox="0 0 212.02 212.023" enable-background="new 0 0 212.02 212.023"
	 xml:space="preserve">
<g>
	<path fill="#FFFFFF" d="M105.885,210.676c-58.197,0-105.542-47.347-105.542-105.546c0-58.195,47.345-105.542,105.542-105.542
		c58.196,0,105.542,47.346,105.542,105.542C211.426,163.329,164.08,210.676,105.885,210.676z M105.885,5.044
		C50.697,5.044,5.799,49.943,5.799,105.13c0,55.19,44.897,100.09,100.085,100.09S205.97,160.32,205.97,105.13
		C205.97,49.943,161.073,5.044,105.885,5.044z"/>
</g>
<g>
	<polygon fill="#FFFFFF" points="132.135,124.333 105.885,169.801 79.634,124.333 	"/>
</g>
<g>
	<rect x="103.156" y="45.521" fill="#FFFFFF" width="5.456" height="102.757"/>
</g>
</svg>
