<?xml version="1.0" encoding="utf-8"?>
<!-- Generator: Adobe Illustrator 16.2.1, SVG Export Plug-In . SVG Version: 6.00 Build 0)  -->
<!DOCTYPE svg PUBLIC "-//W3C//DTD SVG 1.1//EN" "http://www.w3.org/Graphics/SVG/1.1/DTD/svg11.dtd">
<svg version="1.1" id="Layer_1" xmlns="http://www.w3.org/2000/svg" xmlns:xlink="http://www.w3.org/1999/xlink" x="0px" y="0px"
	 width="118.583px" height="118.583px" viewBox="0 0 118.583 118.583" enable-background="new 0 0 118.583 118.583"
	 xml:space="preserve">
<g>
	<path fill="#71BF44" d="M85.118,91.944c-1.541,0-3.082-0.588-4.258-1.763c-2.351-2.352-2.351-6.164,0-8.516l20.581-20.58
		L80.86,40.503c-2.351-2.351-2.351-6.163,0.001-8.515c2.351-2.351,6.164-2.351,8.515,0l24.838,24.839
		c2.351,2.351,2.351,6.163,0,8.515L89.376,90.181C88.2,91.356,86.659,91.944,85.118,91.944z"/>
</g>
<g>
	<path fill="#71BF44" d="M33.09,91.945c-1.542,0-3.082-0.588-4.258-1.764L3.994,65.341c-2.351-2.351-2.351-6.164,0-8.516
		l24.838-24.837c2.352-2.352,6.164-2.352,8.516,0c2.351,2.352,2.351,6.164,0,8.516l-20.581,20.58l20.581,20.583
		c2.351,2.351,2.351,6.163-0.001,8.515C36.172,91.357,34.631,91.945,33.09,91.945z"/>
</g>
<g>
	<path fill="#71BF44" d="M49.434,108.793c-0.5,0-1.009-0.063-1.516-0.194c-3.219-0.835-5.153-4.121-4.317-7.339l21.614-83.37
		c0.835-3.22,4.125-5.15,7.339-4.318c3.22,0.835,5.153,4.121,4.318,7.339l-21.614,83.37
		C54.555,106.994,52.11,108.793,49.434,108.793z"/>
</g>
</svg>
