<?xml version="1.0" encoding="utf-8"?>
<!-- Generator: Adobe Illustrator 16.2.1, SVG Export Plug-In . SVG Version: 6.00 Build 0)  -->
<!DOCTYPE svg PUBLIC "-//W3C//DTD SVG 1.1//EN" "http://www.w3.org/Graphics/SVG/1.1/DTD/svg11.dtd">
<svg version="1.1" id="Layer_1" xmlns="http://www.w3.org/2000/svg" xmlns:xlink="http://www.w3.org/1999/xlink" x="0px" y="0px"
	 width="118.583px" height="118.583px" viewBox="0 0 118.583 118.583" enable-background="new 0 0 118.583 118.583"
	 xml:space="preserve">
<circle fill="#71BF44" cx="59.331" cy="43.802" r="22.042"/>
<path fill="#71BF44" d="M81.354,59.144c-4.852,6.953-12.904,11.503-22.024,11.503s-17.172-4.55-22.024-11.503
	c-11.511,5.908-19.159,16.301-19.159,28.147l0.155,11.251c0,6.756,5.478,12.233,12.234,12.233h57.625
	c6.756,0,12.233-5.478,12.233-12.233l0.117-11.251C100.513,75.445,92.867,65.052,81.354,59.144z"/>
<circle fill="#71BF44" cx="25.984" cy="22.152" r="14.241"/>
<path fill="#71BF44" d="M34.642,54.556c-1.439-3.294-2.243-6.929-2.243-10.753c0-1.241,0.086-2.461,0.25-3.656
	c-2.028,0.731-4.214,1.132-6.493,1.132c-5.666,0-10.753-2.464-14.254-6.378c-3.794,4.622-6.203,10.983-6.203,16.359
	c0,8.673,5.417,15.018,13.664,16.493C23.118,62.403,28.868,58.5,34.642,54.556z"/>
<circle fill="#71BF44" cx="92.677" cy="22.152" r="14.241"/>
<path fill="#71BF44" d="M84.363,54.556c1.438-3.294,2.244-6.929,2.244-10.753c0-1.241-0.086-2.461-0.25-3.656
	c2.027,0.731,4.213,1.132,6.493,1.132c5.665,0,10.753-2.464,14.254-6.378c3.793,4.622,6.203,10.983,6.203,16.359
	c0,8.673-5.417,15.018-13.665,16.493C95.887,62.403,90.138,58.5,84.363,54.556z"/>
</svg>
