<?xml version="1.0" encoding="utf-8"?>
<!-- Generator: Adobe Illustrator 16.2.1, SVG Export Plug-In . SVG Version: 6.00 Build 0)  -->
<!DOCTYPE svg PUBLIC "-//W3C//DTD SVG 1.1//EN" "http://www.w3.org/Graphics/SVG/1.1/DTD/svg11.dtd">
<svg version="1.1" id="Layer_1" xmlns="http://www.w3.org/2000/svg" xmlns:xlink="http://www.w3.org/1999/xlink" x="0px" y="0px"
	 width="212.02px" height="212.023px" viewBox="0 0 212.02 212.023" enable-background="new 0 0 212.02 212.023"
	 xml:space="preserve">
<g>
	<path fill="#FFFFFF" d="M105.455,210.915C47.306,210.915,0,163.606,0,105.455C0,47.307,47.306,0,105.455,0
		S210.91,47.307,210.91,105.455C210.91,163.606,163.604,210.915,105.455,210.915z M105.455,5.452
		C50.312,5.452,5.452,50.313,5.452,105.455c0,55.145,44.861,100.008,100.003,100.008S205.459,160.6,205.459,105.455
		C205.459,50.313,160.598,5.452,105.455,5.452z"/>
</g>
<g>
	<polygon fill="#FFFFFF" points="148.924,93.729 109.524,93.729 130.06,34.342 61.986,117.187 101.388,117.187 80.854,176.573 	"/>
</g>
</svg>
