<?xml version="1.0" encoding="utf-8"?>
<!-- Generator: Adobe Illustrator 16.2.1, SVG Export Plug-In . SVG Version: 6.00 Build 0)  -->
<!DOCTYPE svg PUBLIC "-//W3C//DTD SVG 1.1//EN" "http://www.w3.org/Graphics/SVG/1.1/DTD/svg11.dtd">
<svg version="1.1" id="Layer_1" xmlns="http://www.w3.org/2000/svg" xmlns:xlink="http://www.w3.org/1999/xlink" x="0px" y="0px"
	 width="118.583px" height="118.583px" viewBox="0 0 118.583 118.583" enable-background="new 0 0 118.583 118.583"
	 xml:space="preserve">
<path fill="#71BF44" d="M116.63,45.902c-0.635-1.954-2.324-3.379-4.357-3.673l-33.265-4.835L64.132,7.252
	c-0.91-1.843-2.787-3.009-4.842-3.009c-2.054,0-3.931,1.166-4.84,3.009L39.575,37.395L6.309,42.229
	c-2.032,0.294-3.721,1.719-4.357,3.673c-0.635,1.955-0.105,4.101,1.366,5.533l24.071,23.463l-5.683,33.132
	c-0.348,2.023,0.484,4.071,2.146,5.279c1.663,1.207,3.866,1.366,5.685,0.41l29.753-15.642l29.754,15.642
	c0.79,0.416,1.652,0.619,2.512,0.619c1.119,0,2.232-0.346,3.173-1.029c1.662-1.208,2.495-3.256,2.147-5.279l-5.683-33.132
	l24.071-23.463C116.736,50.003,117.266,47.857,116.63,45.902z"/>
</svg>
