<?xml version="1.0" encoding="utf-8"?>
<!-- Generator: Adobe Illustrator 16.2.1, SVG Export Plug-In . SVG Version: 6.00 Build 0)  -->
<!DOCTYPE svg PUBLIC "-//W3C//DTD SVG 1.1//EN" "http://www.w3.org/Graphics/SVG/1.1/DTD/svg11.dtd">
<svg version="1.1" id="Layer_1" xmlns="http://www.w3.org/2000/svg" xmlns:xlink="http://www.w3.org/1999/xlink" x="0px" y="0px"
	 width="118.583px" height="118.583px" viewBox="0 0 118.583 118.583" enable-background="new 0 0 118.583 118.583"
	 xml:space="preserve">
<path fill="#71BF44" d="M107.118,48.588c-0.527-1.62-1.928-2.802-3.613-3.046L75.92,41.534L63.583,16.537
	c-0.755-1.528-2.312-2.495-4.015-2.495c-1.703,0-3.26,0.967-4.014,2.495L43.219,41.534l-27.586,4.009
	c-1.686,0.244-3.085,1.426-3.613,3.046c-0.526,1.622-0.087,3.4,1.133,4.588l19.961,19.457l-4.712,27.475
	c-0.288,1.678,0.402,3.376,1.78,4.378c1.379,1,3.206,1.133,4.714,0.339l24.673-12.971l24.674,12.971
	c0.654,0.345,1.37,0.514,2.083,0.514c0.928,0,1.851-0.286,2.631-0.853c1.378-1.002,2.069-2.701,1.781-4.378l-4.713-27.475
	l19.961-19.457C107.206,51.989,107.645,50.21,107.118,48.588z"/>
</svg>
