<?xml version="1.0" encoding="utf-8"?>
<!-- Generator: Adobe Illustrator 16.2.1, SVG Export Plug-In . SVG Version: 6.00 Build 0)  -->
<!DOCTYPE svg PUBLIC "-//W3C//DTD SVG 1.1//EN" "http://www.w3.org/Graphics/SVG/1.1/DTD/svg11.dtd">
<svg version="1.1" id="Layer_1" xmlns="http://www.w3.org/2000/svg" xmlns:xlink="http://www.w3.org/1999/xlink" x="0px" y="0px"
	 width="118.583px" height="118.583px" viewBox="0 0 118.583 118.583" enable-background="new 0 0 118.583 118.583"
	 xml:space="preserve">
<path fill="#71BF44" d="M94.314,21.911H24.27c-4.845,0-8.773,3.928-8.773,8.773v45.621c0,4.845,3.928,8.773,8.773,8.773h70.044
	c4.845,0,8.773-3.928,8.773-8.773V30.684C103.087,25.839,99.159,21.911,94.314,21.911z M96.398,78.351H22.186V28.637h74.212V78.351z
	"/>
<path fill="#71BF44" d="M67.188,88.587v5.849H51.396v-5.849H3.613v2.925c0,4.845,3.928,8.773,8.773,8.773h93.811
	c4.845,0,8.773-3.928,8.773-8.773v-2.925H67.188z"/>
</svg>
